<?xml version="1.0" encoding="utf-8"?>
<!-- Generator: Adobe Illustrator 25.2.1, SVG Export Plug-In . SVG Version: 6.00 Build 0)  -->
<svg version="1.1" id="图层_1" xmlns="http://www.w3.org/2000/svg" xmlns:xlink="http://www.w3.org/1999/xlink" x="0px" y="0px"
	 viewBox="0 0 1024 1024" style="enable-background:new 0 0 1024 1024;" xml:space="preserve">
<style type="text/css">
	.st0{fill:#FFFFFF;}
</style>
<g>
	<polygon class="st0" points="464.9,639.2 916.3,331.7 680.2,639.2 916.9,639.2 915.9,107.1 344.8,639.2 	"/>
	<polygon class="st0" points="344.8,639.2 107.5,331.7 558.9,639.2 680.2,639.2 107.1,107.1 108.1,639.2 	"/>
</g>
<g>
	<path class="st0" d="M107.1,709.1h57c63.5,0,102.8,32.9,102.8,103.1c0,69.9-39.3,104.7-100.5,104.7h-32.6l-26.6-26.6V709.1H107.1z
		 M161.6,883.4c38.8,0,62.9-20.8,62.9-71.3c0-50.8-24.1-69.9-62.9-69.9h-12.9v141.2H161.6z"/>
	<path class="st0" d="M341.6,709.1h41.6v173h84.2v34.8h-99.2l-26.6-26.6V709.1z"/>
	<path class="st0" d="M762.1,709.1h68.8c42.7,0,75.3,12.4,75.3,51.1c0,19.1-10.7,39.7-28.4,45.8l0,0c22.5,5.3,39,21.5,39,49.6
		c0,41.8-34.8,61.2-80.6,61.2h-47.6l-26.5-26.5V709.1z M827.8,793.6c26.4,0,37.9-10.7,37.9-27.2c0-18.3-12.4-25.6-37.3-25.6h-24.7
		v52.8H827.8z M832.6,884.8c28.4,0,43.8-10.1,43.8-31.7c0-20.2-15.2-28.6-43.8-28.6h-28.9v60.4h28.9V884.8z"/>
	<polygon class="st0" points="557.3,916.7 620.5,796.8 686.3,916.7 733.6,916.7 619.7,709.2 510.4,916.7 	"/>
</g>
</svg>
