<?xml version="1.0" encoding="utf-8"?>
<!-- Generator: Adobe Illustrator 25.2.1, SVG Export Plug-In . SVG Version: 6.00 Build 0)  -->
<svg version="1.1" id="图层_1" xmlns="http://www.w3.org/2000/svg" xmlns:xlink="http://www.w3.org/1999/xlink" x="0px" y="0px"
	 viewBox="0 0 1024 1024" style="enable-background:new 0 0 1024 1024;" xml:space="preserve">
<g>
	<polygon points="475,611.8 829.2,370.5 643.9,611.8 829.6,611.8 828.9,194.3 380.7,611.8 	"/>
	<polygon points="380.7,611.8 194.6,370.5 548.8,611.8 643.9,611.8 194.2,194.3 195,611.8 	"/>
</g>
<g>
	<path d="M194.2,666.6H239c49.8,0,80.7,25.8,80.7,80.9c0,54.9-30.9,82.2-78.9,82.2h-25.6l-20.9-20.9V666.6z M237,803.5
		c30.4,0,49.4-16.3,49.4-56c0-39.9-19-54.9-49.4-54.9h-10.1v110.8H237z"/>
	<path d="M378.2,666.6h32.6v135.7H477v27.3h-77.8l-20.9-20.9V666.6z"/>
	<path d="M708.2,666.6h54c33.5,0,59.1,9.7,59.1,40.1c0,15-8.4,31.1-22.3,36l0,0c17.6,4.2,30.6,16.9,30.6,38.9
		c0,32.8-27.3,48-63.2,48H729l-20.8-20.8V666.6z M759.8,733c20.7,0,29.7-8.4,29.7-21.4c0-14.3-9.7-20.1-29.3-20.1h-19.4V733H759.8z
		 M763.5,804.6c22.3,0,34.4-7.9,34.4-24.9c0-15.9-11.9-22.5-34.4-22.5h-22.7v47.4H763.5z"/>
	<polygon points="547.5,829.6 597.1,735.5 648.7,829.6 685.8,829.6 596.5,666.7 510.7,829.6 	"/>
</g>
</svg>
